<?xml version="1.0" encoding="UTF-8" standalone="no"?>
<!-- Generator: Adobe Illustrator 16.0.0, SVG Export Plug-In . SVG Version: 6.00 Build 0)  -->

<svg
   xmlns:dc="http://purl.org/dc/elements/1.1/"
   xmlns:cc="http://creativecommons.org/ns#"
   xmlns:rdf="http://www.w3.org/1999/02/22-rdf-syntax-ns#"
   xmlns:svg="http://www.w3.org/2000/svg"
   xmlns="http://www.w3.org/2000/svg"
   xmlns:sodipodi="http://sodipodi.sourceforge.net/DTD/sodipodi-0.dtd"
   xmlns:inkscape="http://www.inkscape.org/namespaces/inkscape"
   version="1.1"
   id="Layer_1"
   x="0px"
   y="0px"
   width="160"
   height="60"
   viewBox="0 0 160 60"
   enable-background="new 0 0 515 300"
   xml:space="preserve"
   sodipodi:docname="logo.svg"
   inkscape:version="0.92.2 (5c3e80d, 2017-08-06)"
   inkscape:export-filename="C:\Users\Christoph\Desktop\PR Material\Icon\iconText1024.png"
   inkscape:export-xdpi="204.60983"
   inkscape:export-ydpi="204.60983"><metadata
     id="metadata349"><rdf:RDF><cc:Work
         rdf:about=""><dc:format>image/svg+xml</dc:format><dc:type
           rdf:resource="http://purl.org/dc/dcmitype/StillImage" /><dc:title /></cc:Work></rdf:RDF></metadata><defs
     id="defs347" /><sodipodi:namedview
     pagecolor="#ffffff"
     bordercolor="#666666"
     borderopacity="1"
     objecttolerance="10"
     gridtolerance="10"
     guidetolerance="10"
     inkscape:pageopacity="0"
     inkscape:pageshadow="2"
     inkscape:window-width="2560"
     inkscape:window-height="1377"
     id="namedview345"
     showgrid="false"
     inkscape:zoom="3.8089486"
     inkscape:cx="34.24024"
     inkscape:cy="69.992258"
     inkscape:window-x="-8"
     inkscape:window-y="-8"
     inkscape:window-maximized="1"
     inkscape:current-layer="flowRoot370-5" /><g
     id="g342"
     transform="translate(1.3126982,-237.11206)"><g
       id="g304"
       style="fill:#ececec"
       transform="matrix(0.24221005,0,0,0.24221005,13.831504,235.74357)"
       inkscape:export-xdpi="196.37332"
       inkscape:export-ydpi="196.37332"><g
         id="g302"
         style="fill:#ececec"><g
           id="g300"
           style="fill:#ececec"><g
             id="g294"
             style="fill:#ececec"><g
               id="g292"
               style="fill:#ececec" /></g><g
             id="g298"
             style="fill:#ececec" /></g></g></g></g><g
     aria-label="KI"
     transform="matrix(0.24221005,0,0,0.24221005,-0.37735252,-7.2885538)"
     style="font-style:normal;font-variant:normal;font-weight:normal;font-stretch:normal;font-size:40px;line-height:1.25;font-family:Trajan-Normal;-inkscape-font-specification:Trajan-Normal;letter-spacing:0px;word-spacing:0px;fill:#ececec;fill-opacity:1;stroke:none"
     id="flowRoot370" /><g
     aria-label="N"
     transform="matrix(0.24221005,0,0,0.24221005,26.778516,-7.3141253)"
     style="font-style:normal;font-variant:normal;font-weight:normal;font-stretch:normal;font-size:40px;line-height:1.25;font-family:Trajan-Normal;-inkscape-font-specification:Trajan-Normal;letter-spacing:0px;word-spacing:0px;fill:#ececec;fill-opacity:1;stroke:none"
     id="flowRoot370-9" /><g
     aria-label="S"
     transform="matrix(0.24221005,0,0,0.24221005,45.407776,-7.388789)"
     style="font-style:normal;font-variant:normal;font-weight:normal;font-stretch:normal;font-size:40px;line-height:1.25;font-family:Trajan-Normal;-inkscape-font-specification:Trajan-Normal;letter-spacing:0px;word-spacing:0px;fill:#ececec;fill-opacity:1;stroke:none"
     id="flowRoot370-9-8" /><g
     aria-label="RIFE"
     transform="matrix(0.21292035,0,0,0.21292035,81.337517,-2.5091735)"
     style="font-style:normal;font-variant:normal;font-weight:normal;font-stretch:normal;font-size:40px;line-height:1.25;font-family:Trajan-Normal;-inkscape-font-specification:Trajan-Normal;letter-spacing:0px;word-spacing:0px;fill:#ececec;fill-opacity:1;stroke:none"
     id="flowRoot370-5"><path
       id="path857"
       style="font-style:normal;font-variant:normal;font-weight:normal;font-stretch:normal;font-size:96px;font-family:Trajan;-inkscape-font-specification:Trajan;fill:#ececec;stroke-width:0.89651513;fill-opacity:1"
       d="m 209.96514,140.74443 v -15.14752 q 0,-15.40571 -0.17213,-18.24587 -0.2582,-4.13115 -3.70082,-4.90573 -1.20491,-0.2582 -3.35655,-0.2582 -1.46311,0 -1.46311,-0.77459 0,-0.77459 1.89344,-0.77459 2.58196,0 6.9713,0.17213 4.4754,0.0861 5.42212,0.0861 20.39751,0 21.51637,-0.0861 2.2377,-0.17213 3.70081,-0.51639 1.46311,-0.344261 1.37705,-0.344261 0.51639,0 0.51639,0.774591 0,0.0861 -0.2582,1.54917 -0.25819,1.72131 -0.43032,4.04508 -0.0861,2.32377 -0.43033,5.68032 -0.17213,0.94672 -0.86066,0.94672 -0.60245,0 -0.77458,-0.94672 -0.0861,-0.94672 -0.17214,-1.80737 -0.0861,-0.86066 -0.34426,-1.54918 -1.03278,-2.4959 -5.76638,-3.09836 -2.92623,-0.34426 -12.2213,-0.34426 -0.60245,0 -0.60245,0.86065 v 21.77456 q 0,0.94672 0.60245,0.94672 11.79097,0 13.77048,-0.17213 1.46311,-0.0861 2.2377,-0.25819 1.29098,-0.34427 1.89344,-1.03279 1.03278,-1.11885 1.37704,-1.11885 0.60246,0 0.60246,0.68852 0,0.0861 -0.25819,1.72131 -0.2582,1.97951 -0.43033,4.56147 -0.34426,4.90573 -0.34426,5.76639 0,1.63524 -0.77459,1.63524 -0.77459,0 -0.77459,-0.86065 0,-0.94672 -0.34426,-3.0123 -0.68853,-2.92622 -4.81967,-3.35655 -2.40983,-0.25819 -12.22129,-0.25819 -0.51639,0 -0.51639,0.86065 v 20.13932 q 0.17213,4.56146 1.9795,5.93851 1.89344,1.29098 8.34835,1.29098 5.85245,0 8.09015,-1.03278 3.01229,-1.37705 3.87295,-6.36885 0.25819,-1.29098 0.94672,-1.29098 0.68852,0 0.68852,1.54918 0,5.24999 -1.11885,9.55327 -0.43033,1.54917 -1.20492,1.89344 -0.77459,0.34426 -3.44261,0.34426 -7.4877,0 -14.88933,-0.2582 -7.40163,-0.25819 -8.9508,-0.25819 -0.77459,0 -4.90573,0.0861 -4.04508,0.17213 -5.93852,0.17213 -1.72131,0 -1.72131,-0.86065 0,-0.60246 1.89344,-0.77459 1.29098,-0.17213 2.58196,-0.2582 1.97951,-0.43033 2.4959,-4.7336 0.43033,-3.35655 0.43033,-18.33194 z m -42.61047,-6.9713 v 6.9713 q 0,14.54506 0.43033,18.33194 0.51639,4.30327 3.35655,4.7336 2.4959,0.34426 4.30327,0.34426 1.46312,0 1.46312,0.68853 0,0.86065 -1.89344,0.86065 -3.09836,0 -7.74589,-0.17213 -4.64754,-0.0861 -5.33606,-0.0861 -0.94672,0 -5.07786,0.0861 -4.04508,0.17213 -5.85245,0.17213 -1.80738,0 -1.80738,-0.86065 0,-0.60246 1.89344,-0.77459 1.20492,-0.17213 2.4959,-0.2582 1.97951,-0.43033 2.4959,-4.7336 0.43033,-3.35655 0.43033,-18.33194 v -15.14752 q 0,-15.40571 -0.17214,-18.24587 -0.25819,-4.13115 -3.70081,-4.90573 -1.20492,-0.2582 -3.35655,-0.2582 -1.46312,0 -1.46312,-0.68852 0,-0.86066 1.97951,-0.86066 2.4959,0 6.88524,0.17213 4.4754,0.0861 5.50819,0.0861 20.9139,0 22.72127,-0.0861 1.37705,0 3.52869,-0.34426 1.63524,-0.516391 1.37704,-0.516391 0.60246,0 0.60246,0.774591 0,0.25819 -0.25819,1.29098 -0.2582,1.29098 -0.43033,2.58196 -0.17213,2.92623 -0.43033,6.9713 -0.17213,1.20492 -0.86065,1.20492 -0.77459,0 -0.86066,-1.37705 0,-2.15163 -0.51639,-3.27048 -1.11885,-2.4959 -5.68032,-2.58197 l -13.25408,-0.25819 q -0.77459,0 -0.77459,1.20491 v 21.51636 q 0,0.77459 0.60246,0.77459 l 11.01638,-0.0861 q 3.61475,0 4.04507,-0.0861 2.4959,-0.25819 3.52869,-1.54918 0.68852,-0.86065 1.11885,-0.86065 0.51639,0 0.51639,0.77459 0,0.17213 -0.2582,1.89344 -0.25819,1.9795 -0.43032,3.44262 -0.34426,3.52868 -0.34426,6.28277 0,1.63525 -0.86066,1.63525 -0.51639,0 -0.77459,-1.63525 -0.25819,-1.11885 -0.43032,-2.2377 -0.94672,-2.66803 -4.38934,-3.09835 -2.06557,-0.2582 -12.73769,-0.2582 -0.60246,0 -0.60246,0.77459 z m -49.67456,6.9713 v -15.14752 q 0,-15.40571 -0.17213,-18.24587 -0.25819,-4.13115 -2.92622,-4.81967 -1.46312,-0.34426 -3.01229,-0.34426 -1.46312,0 -1.46312,-0.86066 0,-0.68852 2.06557,-0.68852 1.72131,0 5.85245,0.17213 4.21721,0.0861 5.33606,0.0861 0.94672,0 4.81967,-0.0861 3.87295,-0.17213 5.68032,-0.17213 1.80737,0 1.80737,0.68852 0,0.86066 -1.29098,0.86066 -1.20491,0 -2.66803,0.2582 -2.92622,0.51639 -3.18442,4.90573 -0.17213,2.84016 -0.17213,18.24587 v 15.14752 q 0,15.40572 0.34426,18.84833 0.34426,3.78688 3.44262,4.21721 2.4959,0.34426 4.38934,0.34426 1.37705,0 1.37705,0.68853 0,0.86065 -1.63525,0.86065 -3.27049,0 -8.00409,-0.17213 -4.64753,-0.0861 -5.42212,-0.0861 -0.77459,0 -4.90573,0.0861 -4.04508,0.17213 -5.93852,0.17213 -1.72131,0 -1.72131,-0.86065 0,-0.60246 1.89344,-0.77459 1.29099,-0.17213 2.58197,-0.2582 2.06557,-0.43033 2.4959,-4.21721 0.43032,-3.87294 0.43032,-18.84833 z m -65.053377,0 v -15.14752 q 0,-15.40571 -0.172131,-18.24587 -0.258197,-4.13115 -3.700815,-4.90573 -1.204916,-0.2582 -3.356552,-0.2582 -1.463113,0 -1.463113,-0.77459 0,-0.77459 1.89344,-0.77459 2.668029,0 6.971301,0.17213 4.303273,0.0861 4.819666,0.0861 1.463112,0 6.110647,-0.0861 4.733599,-0.17213 6.024581,-0.17213 10.41392,0 15.836043,3.70082 2.151636,1.46311 3.78688,4.38933 2.065571,3.44262 2.065571,7.40163 0,10.06966 -11.36064,19.27866 9.381134,11.87704 10.327854,12.90982 4.991799,6.28278 8.348352,9.7254 4.733603,4.90573 9.639333,5.85245 1.03278,0.0861 1.9795,0.17213 1.46311,0.17213 1.46311,0.77459 0,0.86065 -1.63524,0.86065 h -8.17622 q -6.196709,0 -9.208999,-1.63524 -4.21721,-2.2377 -11.79097,-12.65162 -3.700814,-5.25 -8.520479,-11.87704 -0.516393,-0.60245 -1.549179,-0.60245 l -7.487694,-0.17213 q -0.688523,0 -0.688523,0.68852 v 1.20492 q 0,14.63112 0.430327,18.418 0.516393,4.38934 3.356552,4.7336 2.581964,0.34426 4.217208,0.34426 1.032785,0 1.032785,0.68853 0,0.86065 -1.721309,0.86065 -2.926225,0 -7.745891,-0.17213 -4.733599,-0.0861 -4.90573,-0.0861 -0.602458,0 -4.561469,0.0861 -3.959011,0.17213 -5.938516,0.17213 -1.721309,0 -1.721309,-0.86065 0,-0.60246 1.89344,-0.77459 1.290981,-0.17213 2.581963,-0.2582 1.979506,-0.43033 2.495898,-4.7336 0.430328,-3.35655 0.430328,-18.33194 z m 10.155723,-34.51224 v 26.16389 q 0,1.29098 0.774589,1.54918 2.409832,0.86065 6.540974,0.86065 4.131142,0 6.110647,-1.46311 5.077862,-3.70081 5.077862,-12.90982 0,-8.17621 -4.647535,-12.47949 -3.700814,-3.27048 -8.520479,-3.27048 -4.131142,0 -4.905731,0.51639 -0.430327,0.2582 -0.430327,1.03279 z M -67.99936,166.45777 q -7.487692,0 -12.565552,-2.23771 -1.63525,-0.68852 -1.63525,-2.92622 0,-4.64754 0.43033,-11.27457 0.17213,-2.23771 1.03279,-2.23771 0.86065,0 0.86065,1.46312 0,1.80737 0.77459,4.38933 2.58196,8.69261 12.307358,8.69261 5.422124,0 8.692611,-3.18442 2.840159,-2.84016 2.840159,-6.62704 0,-7.14343 -8.434414,-13.77047 l -3.95901,-3.09836 q -12.737684,-9.98359 -12.737684,-20.39751 0,-7.14343 5.50819,-11.7049 5.50818,-4.561471 14.372926,-4.561471 5.594254,0 11.446705,1.463121 1.204916,0.34426 1.204916,1.03278 0,-0.17213 -0.172131,3.09836 -0.172131,3.18442 -0.172131,7.2295 0,2.58196 -0.94672,2.58196 -0.860654,0 -0.860654,-1.54918 0,-2.84016 -2.237702,-5.68032 -3.356552,-4.21721 -9.381134,-4.21721 -4.7336,0 -7.487695,2.4959 -2.75409,2.40983 -2.75409,6.36885 0,3.01229 1.89344,5.76638 1.979502,2.66803 7.229494,6.62704 l 2.409833,1.80737 q 7.74589,5.85246 10.930312,10.84425 3.184422,4.90573 3.184422,11.10244 0,9.7254 -8.090153,14.97539 -5.422123,3.52869 -13.684406,3.52869 z m -72.91326,-48.78095 0.94672,36.14749 q 0.25819,8.60654 3.01229,9.55326 0.2582,0.0861 3.35655,0.43033 2.58196,0.34426 2.58196,0.86066 0,0.86065 -1.9795,0.86065 -3.27049,0 -6.79917,-0.17213 -3.52868,-0.0861 -3.87295,-0.0861 0.0861,0 -3.27048,0.0861 -3.35656,0.17213 -6.02458,0.17213 -1.89344,0 -1.89344,-0.86065 0,-0.60246 2.2377,-0.77459 1.54918,-0.17213 3.01229,-0.34427 1.63524,-0.51639 2.15163,-2.75409 0.43033,-1.97951 0.5164,-7.91802 l 0.77459,-50.95075 q 0.0861,-2.926221 1.11885,-2.926221 0.68852,0 3.18442,2.668031 7.05737,7.57376 26.68029,27.62701 8.77867,9.12293 18.934398,19.62292 h 0.43032 l -0.86065,-38.64339 q -0.0861,-3.18442 -0.34426,-4.38934 -0.68853,-2.58196 -2.58197,-3.35655 -1.290978,-0.51639 -4.561458,-0.51639 -1.37705,0 -1.37705,-0.77459 0,-0.77459 2.2377,-0.77459 2.58196,0 6.196708,0.17213 3.61475,0.0861 4.21721,0.0861 0.0861,0 3.01229,-0.0861 2.92623,-0.17213 5.42213,-0.17213 1.9795,0 1.9795,0.77459 0,0.77459 -1.54918,0.77459 -4.30327,0 -5.24999,2.84016 -0.43033,1.54918 -0.51639,4.7336 l -0.94672,54.3073 q -0.0861,2.66803 -1.11886,2.66803 -0.94671,0 -2.92622,-1.89344 -8.262278,-8.17622 -25.389308,-25.30325 -5.85245,-5.76638 -13.16801,-13.6844 -3.70082,-4.04508 -7.31557,-8.00409 z m -38.32558,22.98806 v -15.14752 q 0,-15.40571 -0.17213,-18.24587 -0.2582,-4.13114 -2.92623,-4.81967 -1.46311,-0.34426 -3.01229,-0.34426 -1.46311,0 -1.46311,-0.86065 0,-0.68853 2.06557,-0.68853 1.72131,0 5.85245,0.17213 4.21721,0.0861 5.33606,0.0861 0.94672,0 4.81966,-0.0861 3.87295,-0.17213 5.68032,-0.17213 1.80738,0 1.80738,0.68853 0,0.86065 -1.29099,0.86065 -1.20491,0 -2.66803,0.2582 -2.92622,0.51639 -3.18442,4.90573 -0.17213,2.84016 -0.17213,18.24587 v 15.14752 q 0,15.40572 0.34426,18.84834 0.34427,3.78688 3.44262,4.2172 2.4959,0.34427 4.38934,0.34427 1.37705,0 1.37705,0.68852 0,0.86065 -1.63525,0.86065 -3.27048,0 -8.00408,-0.17213 -4.64754,-0.0861 -5.42213,-0.0861 -0.77459,0 -4.90573,0.0861 -4.04507,0.17213 -5.93851,0.17213 -1.72131,0 -1.72131,-0.86065 0,-0.60246 1.89344,-0.77459 1.29098,-0.17213 2.58196,-0.2582 2.06557,-0.43032 2.4959,-4.2172 0.43033,-3.87295 0.43033,-18.84834 z m -55.56198,-15.14752 v 3.78688 h 0.43032 q 7.74589,-8.00408 17.98768,-18.9344 4.30327,-5.07786 4.30327,-6.4549 0,-1.46312 -1.20491,-1.72131 -1.11885,-0.2582 -1.11885,-0.86066 0,-0.77459 1.37704,-0.77459 0.86066,0 4.21721,0.17213 3.44263,0.0861 4.64754,0.0861 1.37705,0 5.07787,-0.0861 3.70081,-0.17213 4.99179,-0.17213 1.46312,0 1.46312,0.77459 0,0.77459 -1.29099,0.77459 -2.49589,0 -4.99179,0.94672 -4.38934,1.63524 -9.29508,6.45491 -12.73769,12.39342 -18.59014,18.59014 2.15164,2.84016 11.53277,12.99588 9.03688,9.81146 11.79098,12.39343 4.13114,3.95901 5.85245,5.33605 3.35655,2.7541 6.54097,4.04508 3.18442,1.20492 5.25,1.20492 1.11885,0 1.11885,0.68852 0,0.86065 -2.06557,0.86065 h -7.4877 q -4.13114,0 -5.93851,-0.17213 -3.18443,-0.25819 -5.68032,-1.72131 -1.80739,-1.03278 -4.99181,-3.87294 -2.58196,-2.2377 -12.04916,-13.16802 -8.77868,-10.15572 -10.49999,-12.56555 l -0.94672,-1.29098 h -0.43032 v 7.83195 q 0,14.7172 0.25819,18.41801 0.2582,4.21721 3.09836,4.64753 2.2377,0.34427 4.21721,0.34427 1.11885,0 1.11885,0.68852 0,0.86065 -1.63525,0.86065 -2.75409,0 -7.2295,-0.17213 -4.38933,-0.0861 -5.16392,-0.0861 -0.77459,0 -4.90573,0.0861 -4.04508,0.17213 -5.93852,0.17213 -1.72131,0 -1.72131,-0.86065 0,-0.60246 1.89344,-0.77459 1.29098,-0.17213 2.58197,-0.2582 1.9795,-0.43032 2.49589,-4.7336 0.43033,-3.35655 0.43033,-18.33194 v -15.14752 q 0,-15.40571 -0.17213,-18.24587 -0.2582,-4.13114 -3.70081,-4.90573 -1.20492,-0.2582 -3.35656,-0.2582 -1.46311,0 -1.46311,-0.77459 0,-0.77459 1.89344,-0.77459 2.58196,0 6.9713,0.17213 4.38934,0.0861 5.07786,0.0861 0.94672,0 4.90573,-0.0861 3.95901,-0.17213 5.50819,-0.17213 1.80738,0 1.80738,0.77459 0,0.77459 -1.20492,0.77459 -3.01229,0 -4.21721,1.03279 -1.20491,1.03278 -1.37704,4.04507 -0.17213,2.92623 -0.17213,18.33194 z M 37.483618,97.708459 c 0,0 -23.282498,-5.466949 -38.64787,-5.466949 -15.3582,0 -38.642491,5.466949 -38.642491,5.466949 l 1.901509,3.565441 -1.901509,5.22489 c 0,0 17.343982,-7.131781 38.642491,-7.131781 21.304785,0 38.64787,7.131781 38.64787,7.131781 l -1.899716,-5.22489 z m -47.041941,-2.851814 0.892033,98.931065 2.79623,6.11154 2.117569,-29.08116 2.587343,3.30008 v 29.90146 l 2.352455,4.71747 2.66534,11.77124 1.992056,4.67891 L 7.234302,94.858438 H -9.558323 Z m 8.652268,16.713735 V 99.727409 H 7.169753 C 1.737768,102.34075 -0.906055,111.57038 -0.906055,111.57038 Z M 8.545007,37.801525 c 0,-5.422124 -4.388442,-9.812358 -9.817737,-9.812358 -5.417641,0 -9.814151,4.390234 -9.814151,9.812358 0,3.675712 2.018952,6.874478 5.001658,8.551857 -2.304044,22.095512 0.276126,34.765063 0.276126,47.760052 h 4.537263 4.544435 c 0,-12.994989 2.573895,-25.66454 0.269851,-47.760052 2.98181,-1.677379 5.002555,-4.877042 5.002555,-8.551857 z m -9.817737,5.505499 c -3.021256,0 -5.469639,-2.447486 -5.469639,-5.470535 0,-3.015877 2.447486,-5.469639 5.469639,-5.469639 3.025738,0 5.473225,2.453762 5.473225,5.469639 8.96e-4,3.023049 -2.447487,5.470535 -5.473225,5.470535 z"
       inkscape:connector-curvature="0" /></g></svg>