<?xml version="1.0" encoding="UTF-8" standalone="no"?>
<!-- Generator: Adobe Illustrator 16.0.0, SVG Export Plug-In . SVG Version: 6.00 Build 0)  -->

<svg
   xmlns:dc="http://purl.org/dc/elements/1.1/"
   xmlns:cc="http://creativecommons.org/ns#"
   xmlns:rdf="http://www.w3.org/1999/02/22-rdf-syntax-ns#"
   xmlns:svg="http://www.w3.org/2000/svg"
   xmlns="http://www.w3.org/2000/svg"
   xmlns:sodipodi="http://sodipodi.sourceforge.net/DTD/sodipodi-0.dtd"
   xmlns:inkscape="http://www.inkscape.org/namespaces/inkscape"
   version="1.1"
   id="Layer_1"
   x="0px"
   y="0px"
   width="60"
   height="60"
   viewBox="0 0 60 60"
   enable-background="new 0 0 515 300"
   xml:space="preserve"
   sodipodi:docname="logo.svg"
   inkscape:version="0.92.2 (5c3e80d, 2017-08-06)"
   inkscape:export-filename="C:\Users\Christoph\Desktop\PR Material\Icon\icon16.png"
   inkscape:export-xdpi="9.4381495"
   inkscape:export-ydpi="9.4381495"><metadata
     id="metadata349"><rdf:RDF><cc:Work
         rdf:about=""><dc:format>image/svg+xml</dc:format><dc:type
           rdf:resource="http://purl.org/dc/dcmitype/StillImage" /><dc:title></dc:title></cc:Work></rdf:RDF></metadata><defs
     id="defs347" /><sodipodi:namedview
     pagecolor="#ffffff"
     bordercolor="#666666"
     borderopacity="1"
     objecttolerance="10"
     gridtolerance="10"
     guidetolerance="10"
     inkscape:pageopacity="0"
     inkscape:pageshadow="2"
     inkscape:window-width="2560"
     inkscape:window-height="1377"
     id="namedview345"
     showgrid="false"
     inkscape:zoom="8"
     inkscape:cx="-49.062802"
     inkscape:cy="2.219553"
     inkscape:window-x="-8"
     inkscape:window-y="-8"
     inkscape:window-maximized="1"
     inkscape:current-layer="g342"
     showguides="false"
     fit-margin-top="10"
     fit-margin-bottom="10"
     fit-margin-left="0"
     fit-margin-right="0" /><g
     id="g342"
     inkscape:export-xdpi="169.10985"
     inkscape:export-ydpi="169.10985"
     transform="translate(-1.7010724,6.2857571)"><g
       id="g304"
       inkscape:export-xdpi="49.383915"
       inkscape:export-ydpi="49.383915"
       style="fill:#e1ddd7;fill-opacity:1"
       transform="matrix(0.24497873,0,0,0.24497873,-35.089216,-3.0284949)"><path
         d="m 284.21948,40.83189 c 0,-6.048 -4.895,-10.945 -10.951,-10.945 -6.043,0 -10.947,4.897 -10.947,10.945 0,4.1 2.252,7.668 5.579,9.539 -2.57,24.646 0.308,38.778 0.308,53.273 h 5.061 5.069 c 0,-14.495 2.871,-28.627 0.301,-53.273 3.326,-1.871 5.58,-5.44 5.58,-9.539 z m -10.951,6.141 c -3.37,0 -6.101,-2.73 -6.101,-6.102 0,-3.364 2.73,-6.101 6.101,-6.101 3.375,0 6.105,2.737 6.105,6.101 0.001,3.372 -2.73,6.102 -6.105,6.102 z"
         id="path288"
         style="fill:#e1ddd7;fill-opacity:1"
         inkscape:export-xdpi="49"
         inkscape:export-ydpi="49"
         inkscape:connector-curvature="0" /><g
         id="g302"
         style="fill:#e1ddd7;fill-opacity:1"
         inkscape:export-xdpi="49"
         inkscape:export-ydpi="49"
         transform="translate(3.1504757,-7.3511099)"><g
           id="g300"
           style="fill:#e1ddd7;fill-opacity:1"><g
             id="g294"
             style="fill:#e1ddd7;fill-opacity:1"><g
               id="g292"
               style="fill:#e1ddd7;fill-opacity:1"><path
                 d="m 260.876,111.824 0.995,56.52536 3.119,6.817 2.362,-41.90582 2.886,3.681 v 42.82082 l 2.624,5.262 2.973,13.13 2.222,-0.16467 1.55,-86.16369 h -18.731 z m 9.651,18.643 v -13.21 h 9.008 c -6.059,2.915 -9.008,13.21 -9.008,13.21 z"
                 id="path290"
                 style="fill:#e1ddd7;fill-opacity:1"
                 inkscape:connector-curvature="0"
                 sodipodi:nodetypes="cccccccccccccccc" /></g></g><g
             id="g298"
             style="fill:#e1ddd7;fill-opacity:1"><path
               d="m 313.348,115.005 c 0,0 -25.97,-6.098 -43.109,-6.098 -17.131,0 -43.103,6.098 -43.103,6.098 l 2.121,3.977 -2.121,5.828 c 0,0 19.346,-7.955 43.103,-7.955 23.764,0 43.109,7.955 43.109,7.955 l -2.119,-5.828 z"
               id="path296"
               style="fill:#e1ddd7;fill-opacity:1"
               inkscape:connector-curvature="0" /></g></g></g></g></g></svg>